<svg id="Capa_1" data-name="Capa 1" xmlns="http://www.w3.org/2000/svg" viewBox="0 0 110 40"><defs><style>.cls-1{fill:#fff;}</style></defs><title>Sin título-1</title><path class="cls-1" d="M8.18,11.51V15a2.46,2.46,0,0,0,.25,1.41,1.28,1.28,0,0,0,1,.39H9.92v0.33H4.75V16.83H5.2a1.21,1.21,0,0,0,1.09-.5A2.94,2.94,0,0,0,6.47,15V7.23a2.54,2.54,0,0,0-.24-1.41,1.31,1.31,0,0,0-1-.39H4.75V5.09H9.17a7.84,7.84,0,0,1,2.55.33A3.52,3.52,0,0,1,13.3,6.55a2.89,2.89,0,0,1,.64,1.88,3.16,3.16,0,0,1-1,2.4,3.84,3.84,0,0,1-2.75.93,7.77,7.77,0,0,1-.94-0.06Q8.76,11.63,8.18,11.51Zm0-.51L9,11.14a5.27,5.27,0,0,0,.62,0,2.12,2.12,0,0,0,1.6-.72,2.6,2.6,0,0,0,.67-1.86,3.34,3.34,0,0,0-.32-1.46,2.21,2.21,0,0,0-.91-1,2.65,2.65,0,0,0-1.33-.33A5.27,5.27,0,0,0,8.18,6v5Z"/><path class="cls-1" d="M22,13.12H17.33L16.51,15a3,3,0,0,0-.3,1.05,0.61,0.61,0,0,0,.26.48,2.29,2.29,0,0,0,1.13.27v0.33h-3.8V16.83a2,2,0,0,0,1-.35,5.45,5.45,0,0,0,1-1.74L20,4.82h0.31l4.2,10a4.58,4.58,0,0,0,.92,1.57,1.88,1.88,0,0,0,1.15.4v0.33H21.86V16.83a1.78,1.78,0,0,0,1-.24,0.62,0.62,0,0,0,.25-0.5,3.69,3.69,0,0,0-.36-1.24Zm-0.25-.66-2-4.88-2.1,4.88h4.15Z"/><path class="cls-1" d="M39.52,17.16H36.3l-4.08-5.64-0.74,0H31V15a2.46,2.46,0,0,0,.25,1.41,1.27,1.27,0,0,0,1,.39h0.47v0.33H27.52V16.83H28a1.21,1.21,0,0,0,1.09-.5A2.81,2.81,0,0,0,29.25,15V7.23A2.46,2.46,0,0,0,29,5.81a1.31,1.31,0,0,0-1-.39H27.52V5.09h4.4a10.45,10.45,0,0,1,2.83.28,3.24,3.24,0,0,1,1.55,1,2.69,2.69,0,0,1,.64,1.79,2.82,2.82,0,0,1-.73,1.93A4.1,4.1,0,0,1,34,11.29l2.49,3.46a6.19,6.19,0,0,0,1.47,1.58,3.7,3.7,0,0,0,1.6.5v0.33ZM31,11h0.5a3.92,3.92,0,0,0,2.6-.75,2.39,2.39,0,0,0,.88-1.9,2.49,2.49,0,0,0-.71-1.84,2.53,2.53,0,0,0-1.87-.71,7.85,7.85,0,0,0-1.4.17v5Z"/><path class="cls-1" d="M44.81,10.47l4.45,4.42a8.12,8.12,0,0,0,1.87,1.49,4,4,0,0,0,1.55.45v0.33H46.94V16.83a1.24,1.24,0,0,0,.74-0.17,0.49,0.49,0,0,0,.23-0.39,0.84,0.84,0,0,0-.08-0.38,3.39,3.39,0,0,0-.56-0.63L43.1,11.14V15a4,4,0,0,0,.12,1.21,0.8,0.8,0,0,0,.37.38,1.64,1.64,0,0,0,.81.21h0.41v0.33H39.67V16.83h0.43a1.29,1.29,0,0,0,1.09-.44A2.71,2.71,0,0,0,41.39,15V7.23A4.09,4.09,0,0,0,41.28,6a0.81,0.81,0,0,0-.36-0.37,1.69,1.69,0,0,0-.82-0.21H39.67V5.09h5.14V5.42H44.4a1.73,1.73,0,0,0-.81.2,0.77,0.77,0,0,0-.38.43,4.07,4.07,0,0,0-.11,1.17v3.69l1.22-1.13a26.77,26.77,0,0,0,3.19-3.23,1.17,1.17,0,0,0,.24-0.62,0.46,0.46,0,0,0-.19-0.36,1,1,0,0,0-.63-0.16H46.66V5.09h4.43V5.42a2.64,2.64,0,0,0-.71.11,3.66,3.66,0,0,0-.78.38,7.67,7.67,0,0,0-1.14.9q-0.2.18-1.81,1.82Z"/><path class="cls-1" d="M66.77,13.82l0.29,0.06-1,3.27H56.69V16.83h0.45a1.21,1.21,0,0,0,1.09-.5A2.87,2.87,0,0,0,58.42,15V7.23a2.49,2.49,0,0,0-.25-1.41,1.31,1.31,0,0,0-1-.39H56.69V5.09h5.46V5.42a3.33,3.33,0,0,0-1.35.18,1.09,1.09,0,0,0-.53.47,3.88,3.88,0,0,0-.14,1.36V15a2.47,2.47,0,0,0,.14,1,0.64,0.64,0,0,0,.33.28A5.78,5.78,0,0,0,62,16.4h0.88a6.38,6.38,0,0,0,1.95-.2,2.54,2.54,0,0,0,1-.73A5.94,5.94,0,0,0,66.77,13.82Z"/><path class="cls-1" d="M76.15,5.42V5.09h4.27V5.42H80a1.23,1.23,0,0,0-1.09.6,2.72,2.72,0,0,0-.19,1.28v4.89A8.65,8.65,0,0,1,78.33,15a3.53,3.53,0,0,1-1.41,1.72,5,5,0,0,1-2.87.72,5.4,5.4,0,0,1-3-.69,3.71,3.71,0,0,1-1.45-1.84,10.23,10.23,0,0,1-.28-3V7.23A2.36,2.36,0,0,0,69,5.77a1.26,1.26,0,0,0-1-.35H67.55V5.09h5.22V5.42H72.31a1.2,1.2,0,0,0-1.07.47A2.63,2.63,0,0,0,71,7.23v5.26a11.59,11.59,0,0,0,.13,1.61,3.43,3.43,0,0,0,.47,1.41,2.54,2.54,0,0,0,1,.84,3.37,3.37,0,0,0,1.56.33,4.31,4.31,0,0,0,2.12-.52,2.77,2.77,0,0,0,1.28-1.32,7.65,7.65,0,0,0,.34-2.73V7.23a2.49,2.49,0,0,0-.25-1.41,1.31,1.31,0,0,0-1-.39H76.15Z"/><path class="cls-1" d="M88.44,10.48L91,14.34a10.68,10.68,0,0,0,1.6,2,2.24,2.24,0,0,0,1.32.47v0.33H88.77V16.83a2.34,2.34,0,0,0,.77-0.11,0.73,0.73,0,0,0,.31-0.24A0.56,0.56,0,0,0,90,16.15a1.12,1.12,0,0,0-.08-0.41A7,7,0,0,0,89.39,15l-2-3.1L84.82,15.1a4.88,4.88,0,0,0-.48.69,0.85,0.85,0,0,0-.08.36,0.57,0.57,0,0,0,.24.47,1.7,1.7,0,0,0,.92.21v0.33H81.13V16.83a2.62,2.62,0,0,0,.78-0.19A4.54,4.54,0,0,0,83,16a7.34,7.34,0,0,0,1.14-1.2L87,11.22,84.58,7.75a7,7,0,0,0-1.65-1.86,3,3,0,0,0-1.56-.47V5.09H87V5.42a1.78,1.78,0,0,0-1,.23,0.58,0.58,0,0,0-.26.45,2,2,0,0,0,.43,1L88,9.84l2.14-2.71a4.66,4.66,0,0,0,.46-0.66,0.84,0.84,0,0,0,.08-0.36,0.53,0.53,0,0,0-.11-0.33,0.71,0.71,0,0,0-.34-0.26,3.1,3.1,0,0,0-.85-0.08V5.09h4.28V5.42a2.53,2.53,0,0,0-.83.16,3.33,3.33,0,0,0-.88.55,10,10,0,0,0-1.13,1.28Z"/><path class="cls-1" d="M98.35,5.75v4.77H101a2.16,2.16,0,0,0,1.38-.31,2,2,0,0,0,.52-1.44h0.33V13H102.9a4.59,4.59,0,0,0-.25-1.13,1.11,1.11,0,0,0-.53-0.49,2.68,2.68,0,0,0-1.12-.18H98.35v4a3.7,3.7,0,0,0,.07,1,0.56,0.56,0,0,0,.25.28,1.52,1.52,0,0,0,.68.1h2a5.55,5.55,0,0,0,1.49-.14,2.22,2.22,0,0,0,.89-0.56,6.85,6.85,0,0,0,1.13-1.66h0.36l-1,3h-9.3V16.83h0.43a1.69,1.69,0,0,0,.81-0.2,0.75,0.75,0,0,0,.39-0.43,4.19,4.19,0,0,0,.1-1.17V7.19a2.6,2.6,0,0,0-.23-1.41,1.38,1.38,0,0,0-1.07-.36H94.91V5.09h9.3l0.13,2.64H104a4.17,4.17,0,0,0-.41-1.31,1.42,1.42,0,0,0-.67-0.54,4,4,0,0,0-1.25-.13H98.35Z"/><path class="cls-1" d="M33.54,31.77l-0.22.72H30.53l0.22-.72h2.79Z"/><path class="cls-1" d="M81,31.77l-0.22.72H78l0.22-.72H81Z"/><path class="cls-1" d="M40.09,35h-5.4l0.08-.2a2,2,0,0,0,.58-0.07,0.75,0.75,0,0,0,.33-0.25A3.52,3.52,0,0,0,36,33.6l1.28-4.44a3.23,3.23,0,0,0,.16-0.81A0.38,0.38,0,0,0,37.33,28a1,1,0,0,0-.56-0.11H36.62l0.06-.2h3l0,0.2a1.84,1.84,0,0,0-.71.1,0.82,0.82,0,0,0-.35.32,4.76,4.76,0,0,0-.32.9L37,33.6a3,3,0,0,0-.15.69,0.33,0.33,0,0,0,.15.25,0.7,0.7,0,0,0,.41.08h0.7a3.16,3.16,0,0,0,1.22-.19A1.91,1.91,0,0,0,39.93,34a5.9,5.9,0,0,0,.53-0.8l0.14-.24h0.2Z"/><path class="cls-1" d="M44.76,34.82l-0.06.2h-3l0.08-.2a1.87,1.87,0,0,0,.6-0.08,0.73,0.73,0,0,0,.35-0.25,3.29,3.29,0,0,0,.37-0.9l1.27-4.4a3.24,3.24,0,0,0,.16-0.83,0.4,0.4,0,0,0-.07-0.24A0.43,0.43,0,0,0,44.24,28a2,2,0,0,0-.56-0.05l0.06-.2h2.82l-0.06.2A1.18,1.18,0,0,0,46,28a0.81,0.81,0,0,0-.37.31,4.18,4.18,0,0,0-.33.88L44,33.59a4,4,0,0,0-.17.77,0.38,0.38,0,0,0,.07.23,0.43,0.43,0,0,0,.22.15A2.94,2.94,0,0,0,44.76,34.82Z"/><path class="cls-1" d="M46.67,35.18l0.6-2.7h0.18q0,0.39,0,.65a1.61,1.61,0,0,0,.47,1.2,1.68,1.68,0,0,0,1.23.46,1.32,1.32,0,0,0,1.07-.43,1.5,1.5,0,0,0,.37-1,1.35,1.35,0,0,0-.17-0.67A10.1,10.1,0,0,0,49,31.12a4.7,4.7,0,0,1-.68-0.8,1.83,1.83,0,0,1-.25-0.91,1.74,1.74,0,0,1,.57-1.31,2,2,0,0,1,1.46-.54,2.65,2.65,0,0,1,.57.06,3.88,3.88,0,0,1,.61.22L51.66,28l0.17,0a0.45,0.45,0,0,0,.27-0.08,1.12,1.12,0,0,0,.26-0.34h0.2L52,30H51.82q0-.32,0-0.52a1.41,1.41,0,0,0-.43-1.06A1.57,1.57,0,0,0,50.28,28a1.27,1.27,0,0,0-.91.33,1,1,0,0,0-.35.76,1.29,1.29,0,0,0,.22.72,8,8,0,0,0,1,1.11,5.88,5.88,0,0,1,1,1.2,1.89,1.89,0,0,1,.24.92,2.15,2.15,0,0,1-.29,1.07,2,2,0,0,1-.84.8,2.56,2.56,0,0,1-1.2.29,2.91,2.91,0,0,1-.6-0.06,7,7,0,0,1-.89-0.29,1,1,0,0,0-.35-0.08,0.56,0.56,0,0,0-.49.43h-0.2Z"/><path class="cls-1" d="M54.61,27.92l0.07-.2h2.6a3.14,3.14,0,0,1,1.17.2,1.65,1.65,0,0,1,.77.57,1.33,1.33,0,0,1,.26.77A1.66,1.66,0,0,1,59,30.41a2.81,2.81,0,0,1-1.48.75,2.12,2.12,0,0,1,1,.66,1.45,1.45,0,0,1,.31.9,2.08,2.08,0,0,1-.28,1,2.11,2.11,0,0,1-.72.77,3.22,3.22,0,0,1-1.06.4A7.47,7.47,0,0,1,55.4,35H52.73l0.07-.2a1.65,1.65,0,0,0,.57-0.08,0.63,0.63,0,0,0,.31-0.24A4.58,4.58,0,0,0,54,33.56l1.31-4.41a3.27,3.27,0,0,0,.17-0.78A0.38,0.38,0,0,0,55.35,28a1,1,0,0,0-.56-0.12H54.61Zm0,6.62a7.56,7.56,0,0,0,.91.08A2.35,2.35,0,0,0,57,34.11a1.65,1.65,0,0,0,.65-1.37,1.34,1.34,0,0,0-.4-1A1.87,1.87,0,0,0,56,31.34l-0.42,0ZM55.7,31h0.51a2.44,2.44,0,0,0,1.66-.49,1.56,1.56,0,0,0,.55-1.22,1.12,1.12,0,0,0-.33-0.86A1.53,1.53,0,0,0,57,28.09a2.46,2.46,0,0,0-.49.06Z"/><path class="cls-1" d="M66,27.56a2.57,2.57,0,0,1,1.29.31,2.18,2.18,0,0,1,.88.93,2.76,2.76,0,0,1,.32,1.28,5.27,5.27,0,0,1-.68,2.46,5,5,0,0,1-1.78,2,4.26,4.26,0,0,1-2.27.68,2.51,2.51,0,0,1-1.41-.37,2.25,2.25,0,0,1-.84-1,2.93,2.93,0,0,1-.27-1.19,4.52,4.52,0,0,1,.49-2,6.05,6.05,0,0,1,1.17-1.67,5.25,5.25,0,0,1,1.46-1A3.85,3.85,0,0,1,66,27.56Zm-0.18.34a2.26,2.26,0,0,0-1.05.27,3.44,3.44,0,0,0-1,.87,6.08,6.08,0,0,0-.91,1.58,6,6,0,0,0-.49,2.27,2.38,2.38,0,0,0,.39,1.35,1.35,1.35,0,0,0,1.2.59,2.08,2.08,0,0,0,1-.24,3.48,3.48,0,0,0,1-.83A6.22,6.22,0,0,0,67,31.89a6,6,0,0,0,.44-2.13A2.2,2.2,0,0,0,67,28.46,1.35,1.35,0,0,0,65.83,27.9Z"/><path class="cls-1" d="M75.1,27.56l-0.55,6.06q0,0.42,0,.56a0.56,0.56,0,0,0,.08.33,0.61,0.61,0,0,0,.28.23,1.62,1.62,0,0,0,.59.08l-0.06.2H72.52l0.06-.2H72.7a1,1,0,0,0,.57-0.15,0.66,0.66,0,0,0,.24-0.34,4.16,4.16,0,0,0,.11-0.78l0.09-.92H71.62l-0.74,1a3,3,0,0,0-.32.49,0.7,0.7,0,0,0-.06.28,0.38,0.38,0,0,0,.14.3,0.73,0.73,0,0,0,.46.13L71,35H68.89l0.06-.2a1.15,1.15,0,0,0,.7-0.27,6.71,6.71,0,0,0,.91-1.07l4.36-5.93H75.1ZM74,29.35l-2.11,2.88h1.83Z"/></svg>