<?xml version="1.0" encoding="utf-8"?>
<!-- Generator: Adobe Illustrator 17.0.0, SVG Export Plug-In . SVG Version: 6.00 Build 0)  -->
<!DOCTYPE svg PUBLIC "-//W3C//DTD SVG 1.1//EN" "http://www.w3.org/Graphics/SVG/1.1/DTD/svg11.dtd">
<svg version="1.1" id="Capa_1" xmlns="http://www.w3.org/2000/svg" xmlns:xlink="http://www.w3.org/1999/xlink" x="0px" y="0px"
	 width="170.28px" height="184.43px" viewBox="0 0 170.28 184.43" enable-background="new 0 0 170.28 184.43" xml:space="preserve">
<g>
	<path fill="#1A2139" d="M86.83,7.43c-28.8,0-52.15,23.35-52.15,52.15s23.35,52.15,52.15,52.15c28.8,0,52.15-23.35,52.15-52.15
		S115.63,7.43,86.83,7.43z M136.2,59.7c0,3.03-0.27,5.99-0.79,8.87l-10.21-2.07l10.98-8.18C136.19,58.78,136.2,59.24,136.2,59.7z
		 M81.44,56.28c-0.04-0.1-0.06-0.21-0.05-0.31c1.83-15.11,9.11-22.39,10.83-25.31c0.08-0.14,0.29-0.12,0.35,0.02
		c6.21,13.51,1.35,16.03-5.92,33.19c-1.92,5.71,1.44,15.41,1.88,16.05c0.44,0.63-0.57,8.94-1.14,8.82
		c-0.57-0.13-3.46-6.67-3.36-7.55C84.41,77.73,84.1,62.35,81.44,56.28z M129.16,34.26c-1.41,1.43-4.14,4.13-4.91,4.42
		c-1.06,0.39-8.81,1.12-8.92,0.5c-0.11-0.61,4.96-6.08,5.86-11.71c0.84,0,1.79-0.29,2.45-0.7C125.7,29.07,127.56,31.58,129.16,34.26
		z M130.72,37.05c0.87,1.68,1.64,3.41,2.31,5.19c-1.4,1.34-3.89,3.68-4.87,4.35c-1.39,0.95-19.08,5.24-19.52,4.85
		s-1.17-3.85-0.95-4.35c0.22-0.5,4.18-4.13,5.02-4.74c0.84-0.61,9.71-0.17,11.88-1C126.12,40.76,129.1,38.39,130.72,37.05z
		 M120.7,24.75l-0.12-1.14c0.22,0.21,0.44,0.42,0.66,0.63L120.7,24.75z M118.34,26.63c-2.34,7.42-5.91,11.71-11.04,16.9
		c-0.82-1.37-1.84-7.47-1.78-8.7c0.05-1.06,4.51-14.49,5.72-18.12c1.94,1.11,3.79,2.34,5.56,3.7
		C117.11,22.01,117.8,25.3,118.34,26.63z M102.44,34.99c0,1.34,2.23,10.88,2.23,10.88s-7.53,5.05-8.63,5.36
		c-0.06,0.02-0.11-0.05-0.08-0.11c5.77-10.26,0.16-17.1-1.23-24.28c0.33-0.81,7.38-10.67,9.39-13.48c1.51,0.57,2.98,1.21,4.41,1.91
		C107.19,19.41,102.44,33.85,102.44,34.99z M93.91,22.39l-1.51-6.02c0,0,3.33-3,4.3-5.14c1.44,0.3,2.86,0.66,4.25,1.07L93.91,22.39z
		 M91.6,12.79l-0.82-2.41c0.81,0.07,1.62,0.15,2.42,0.26L91.6,12.79z M88.98,65.59c0.89-2.47,3.54-9.45,4.57-10.34
		c1.21-0.44,7.74-3.36,11.48-6.09l0.82,3.68c-6.12,6.02-12.24,13.96-14.97,24.42C90.66,78.11,88.1,68.06,88.98,65.59z M108.69,54.74
		c1.9-0.73,19.08-4.57,21.03-5.86c1.36-0.89,3.28-2.67,4.32-3.67c0.46,1.49,0.85,3.01,1.16,4.56c-1.42,1.96-3.98,5.75-5.04,8.93
		c-0.51,1.52-5.24,3.46-10.15,8.81c-1.41,1.54-20.3,0.61-22.7,1.73C98.37,65.72,106.79,55.46,108.69,54.74z M134.91,55.52l0.96-1.53
		c0.05,0.41,0.09,0.82,0.13,1.23L134.91,55.52z M87.68,10.22l3.45,15.36c0.06,0.27,0.01,0.56-0.14,0.79
		c-4.89,7.39-9.58,13.97-12.25,24.74c0,0-4.01-7.3-4.63-26.51c0-0.06,0.01-0.12,0.03-0.17c0.76-1.98,2.77-8.44,3.01-13.29
		c3.09-0.61,6.29-0.93,9.56-0.93C87.03,10.21,87.36,10.22,87.68,10.22z M37.23,60.88c-0.01-0.39-0.01-0.79-0.01-1.18
		c0-1.9,0.11-3.77,0.32-5.62c1.83,1.27,6.78,4.08,9.97,0c0,0,5.72,2.13,11.43,2.02c1.1,1.49,14.95,14.2,16.3,18.21
		c-0.53,0.28-16.54-8.09-33.19-9.87C42.04,64.45,39.59,61.34,37.23,60.88z M38.85,67.44l-0.94,0.55c-0.04-0.22-0.08-0.44-0.11-0.67
		L38.85,67.44z M39.87,43.69c2.37,2.65,2.76,6.28,5.16,8.42c0.14,0.13,0.13,0.35-0.03,0.46c-2.73,1.75-4.08-0.33-6.97-1.8
		C38.47,48.34,39.08,45.98,39.87,43.69z M71.15,24.9c0.1,1.09,0.42,5.52,0.33,6.47c-3.07,11.97-9.83,13.99-9.75,22.93
		c0,0.01-0.27-0.24-0.27-0.24c-5.46-4.45-1.94-21.4-2.59-23.72c-0.39-1.4-2.91-6.85-3.93-8.58c2.1-1.76,4.34-3.34,6.71-4.74
		C62.77,20.26,71.09,24.21,71.15,24.9z M64.27,15.58c3.07-1.56,6.32-2.81,9.72-3.72c-0.35,2.52-1.36,9.41-1.77,9.68
		C71.71,21.88,65.19,17.48,64.27,15.58z M53.37,26.22c0.07,0.01,0.13,0.05,0.16,0.11l0.96,1.96c0.09,0.18-0.05,0.4-0.25,0.39
		l-5.98-0.14c0.74-0.91,1.5-1.79,2.3-2.64L53.37,26.22z M55.9,32.12c0.2,0,0.37,0.15,0.38,0.36c0.31,4.34-2.72,15.99,1.06,21.05
		c0.12,0.16-5.8-0.34-8.99-2.35c-3.29-2.08-3.86-7.47-7.3-10.6c1.36-3.24,3.06-6.31,5.05-9.16C47.76,31.6,52.75,32.13,55.9,32.12z
		 M65.83,58.57c-0.31-0.32-0.54-0.71-0.63-1.15c-1.76-8.41,4.68-14.1,6.97-19.42c0.11-0.25,0.47-0.2,0.5,0.07
		c1.65,17.93,9.79,18.37,8.07,38.78c0,0.06-0.08,0.08-0.11,0.03C77.56,70.69,69.03,61.84,65.83,58.57z M38.47,70.81
		c1.48-0.44,4.56-1.88,5.25-2.69c0.14-0.17,0.35-0.27,0.57-0.24c7.05,0.86,31.57,9.01,33.76,11.6c4.69,5.47,5.75,25.35,5.67,29.63
		C61.54,107.78,43.29,91.85,38.47,70.81z M91.74,108.94L91.74,108.94c0,0-1.22-25.1,3.68-35.52c2.23-2.79,16.51-1.62,21.42-2.29
		c4.91-0.67,5.35-1.56,6.47-1.51c1.03,0.05,8.79,1.77,11.42,2.12C129.74,91.68,112.66,106.83,91.74,108.94z"/>
	<g>
		<g>
			<path fill="#1A2139" d="M17.2,142.65v5.1c0,1.1,0.12,1.79,0.36,2.05c0.33,0.38,0.82,0.57,1.49,0.57h0.67v0.48h-7.5v-0.48h0.66
				c0.74,0,1.27-0.24,1.59-0.72c0.17-0.27,0.26-0.9,0.26-1.9v-11.31c0-1.1-0.12-1.79-0.35-2.05c-0.34-0.38-0.84-0.57-1.5-0.57h-0.66
				v-0.48h6.42c1.57,0,2.8,0.16,3.71,0.48s1.67,0.87,2.29,1.63c0.62,0.77,0.93,1.67,0.93,2.72c0,1.43-0.47,2.59-1.41,3.49
				c-0.94,0.9-2.27,1.34-4,1.34c-0.42,0-0.88-0.03-1.37-0.09C18.29,142.86,17.76,142.77,17.2,142.65z M17.2,141.92
				c0.46,0.09,0.86,0.15,1.21,0.19c0.35,0.04,0.65,0.06,0.9,0.06c0.9,0,1.67-0.35,2.32-1.04c0.65-0.69,0.97-1.59,0.97-2.69
				c0-0.76-0.15-1.46-0.46-2.11c-0.31-0.65-0.75-1.14-1.32-1.46c-0.57-0.32-1.21-0.48-1.94-0.48c-0.44,0-1,0.08-1.69,0.25V141.92z"
				/>
			<path fill="#1A2139" d="M37.26,144.99h-6.78l-1.19,2.76c-0.29,0.68-0.44,1.19-0.44,1.52c0,0.27,0.13,0.5,0.38,0.7
				c0.25,0.2,0.8,0.33,1.65,0.39v0.48h-5.51v-0.48c0.73-0.13,1.21-0.3,1.42-0.5c0.44-0.41,0.93-1.25,1.46-2.52l6.16-14.41h0.45
				l6.1,14.57c0.49,1.17,0.94,1.93,1.34,2.28c0.4,0.35,0.96,0.54,1.67,0.59v0.48h-6.91v-0.48c0.7-0.03,1.17-0.15,1.41-0.35
				c0.25-0.2,0.37-0.44,0.37-0.72c0-0.38-0.17-0.98-0.52-1.79L37.26,144.99z M36.9,144.03l-2.97-7.08l-3.05,7.08H36.9z"/>
			<path fill="#1A2139" d="M62.69,150.85h-4.67l-5.93-8.19c-0.44,0.02-0.8,0.03-1.07,0.03c-0.11,0-0.23,0-0.36-0.01
				c-0.13,0-0.26-0.01-0.4-0.02v5.09c0,1.1,0.12,1.79,0.36,2.05c0.33,0.38,0.82,0.57,1.47,0.57h0.68v0.48h-7.5v-0.48h0.66
				c0.74,0,1.27-0.24,1.59-0.72c0.18-0.27,0.27-0.9,0.27-1.9v-11.31c0-1.1-0.12-1.79-0.36-2.05c-0.34-0.38-0.84-0.57-1.5-0.57h-0.66
				v-0.48h6.38c1.86,0,3.23,0.14,4.11,0.41s1.63,0.77,2.25,1.5c0.62,0.73,0.92,1.59,0.92,2.6c0,1.08-0.35,2.01-1.05,2.8
				c-0.7,0.79-1.79,1.35-3.26,1.68l3.62,5.02c0.83,1.15,1.54,1.92,2.13,2.3c0.59,0.38,1.37,0.62,2.32,0.72V150.85z M50.25,141.85
				c0.16,0,0.31,0,0.43,0.01c0.12,0,0.22,0.01,0.3,0.01c1.67,0,2.93-0.36,3.78-1.08s1.27-1.64,1.27-2.76c0-1.09-0.34-1.98-1.03-2.67
				c-0.68-0.68-1.59-1.03-2.72-1.03c-0.5,0-1.18,0.08-2.03,0.25V141.85z"/>
			<path fill="#1A2139" d="M70.36,141.14l6.46,6.42c1.06,1.06,1.96,1.78,2.71,2.16c0.75,0.38,1.5,0.6,2.25,0.65v0.48h-8.33v-0.48
				c0.5,0,0.86-0.08,1.08-0.25c0.22-0.17,0.33-0.35,0.33-0.56c0-0.21-0.04-0.39-0.12-0.56c-0.08-0.16-0.35-0.47-0.81-0.92
				l-6.04-5.98v5.64c0,0.89,0.06,1.47,0.17,1.76c0.09,0.22,0.27,0.4,0.54,0.56c0.37,0.21,0.76,0.31,1.18,0.31h0.59v0.48h-7.46v-0.48
				h0.62c0.72,0,1.25-0.21,1.58-0.63c0.21-0.28,0.31-0.94,0.31-1.99v-11.31c0-0.89-0.06-1.48-0.17-1.77
				c-0.09-0.21-0.26-0.39-0.53-0.54c-0.38-0.21-0.77-0.31-1.19-0.31h-0.62v-0.48h7.46v0.48h-0.59c-0.4,0-0.8,0.1-1.18,0.3
				c-0.27,0.14-0.45,0.34-0.56,0.62c-0.1,0.28-0.15,0.84-0.15,1.7v5.36c0.17-0.16,0.76-0.71,1.77-1.64c2.56-2.34,4.1-3.9,4.64-4.69
				c0.23-0.34,0.35-0.65,0.35-0.9c0-0.2-0.09-0.37-0.27-0.52c-0.18-0.15-0.49-0.23-0.92-0.23h-0.4v-0.48h6.43v0.48
				c-0.38,0.01-0.72,0.06-1.03,0.15s-0.69,0.28-1.14,0.55s-1,0.71-1.65,1.31c-0.19,0.17-1.06,1.05-2.62,2.65L70.36,141.14z"/>
			<path fill="#1A2139" d="M102.22,146.01l0.43,0.09l-1.5,4.75H87.59v-0.48h0.66c0.74,0,1.27-0.24,1.59-0.72
				c0.18-0.28,0.27-0.91,0.27-1.91v-11.3c0-1.09-0.12-1.78-0.36-2.05c-0.34-0.38-0.84-0.57-1.5-0.57h-0.66v-0.48h7.93v0.48
				c-0.93-0.01-1.58,0.08-1.96,0.26c-0.37,0.18-0.63,0.41-0.77,0.68c-0.14,0.28-0.21,0.93-0.21,1.98v11c0,0.71,0.07,1.21,0.21,1.47
				c0.1,0.18,0.26,0.31,0.48,0.4c0.22,0.09,0.89,0.13,2.01,0.13h1.28c1.34,0,2.29-0.1,2.83-0.3s1.04-0.55,1.49-1.05
				C101.33,147.89,101.77,147.09,102.22,146.01z"/>
			<path fill="#1A2139" d="M115.83,133.82v-0.48h6.2v0.48h-0.66c-0.69,0-1.22,0.29-1.59,0.87c-0.18,0.27-0.27,0.89-0.27,1.86v7.1
				c0,1.76-0.17,3.12-0.52,4.09c-0.35,0.97-1.03,1.8-2.05,2.49c-1.02,0.69-2.41,1.04-4.16,1.04c-1.91,0-3.36-0.33-4.35-0.99
				c-0.99-0.66-1.69-1.55-2.1-2.67c-0.28-0.77-0.41-2.2-0.41-4.31v-6.84c0-1.08-0.15-1.78-0.45-2.12c-0.3-0.34-0.78-0.5-1.44-0.5
				h-0.66v-0.48h7.57v0.48h-0.67c-0.72,0-1.24,0.23-1.55,0.68c-0.22,0.31-0.32,0.96-0.32,1.94v7.63c0,0.68,0.06,1.46,0.19,2.34
				c0.12,0.88,0.35,1.56,0.68,2.05c0.33,0.49,0.8,0.9,1.41,1.21c0.62,0.32,1.37,0.48,2.27,0.48c1.14,0,2.17-0.25,3.07-0.75
				c0.9-0.5,1.52-1.14,1.85-1.92s0.5-2.1,0.5-3.96v-7.09c0-1.09-0.12-1.78-0.36-2.05c-0.34-0.38-0.84-0.57-1.5-0.57H115.83z"/>
			<path fill="#1A2139" d="M133.66,141.15l3.76,5.6c1.04,1.55,1.81,2.53,2.32,2.94c0.5,0.41,1.14,0.63,1.92,0.68v0.48h-7.52v-0.48
				c0.5-0.01,0.87-0.06,1.11-0.15c0.18-0.08,0.33-0.2,0.45-0.36c0.12-0.16,0.17-0.32,0.17-0.48c0-0.2-0.04-0.4-0.12-0.59
				c-0.06-0.15-0.3-0.53-0.71-1.14l-2.97-4.49l-3.67,4.7c-0.39,0.5-0.62,0.83-0.7,1c-0.08,0.17-0.12,0.34-0.12,0.52
				c0,0.28,0.12,0.5,0.35,0.68s0.68,0.28,1.33,0.31v0.48h-6.21v-0.48c0.44-0.04,0.82-0.13,1.14-0.27c0.53-0.22,1.04-0.52,1.52-0.9
				c0.48-0.38,1.03-0.96,1.65-1.74l4.13-5.22l-3.45-5.05c-0.94-1.37-1.73-2.27-2.39-2.69c-0.65-0.43-1.41-0.65-2.26-0.68v-0.48h8.1
				v0.48c-0.69,0.03-1.16,0.14-1.41,0.34c-0.25,0.2-0.38,0.42-0.38,0.66c0,0.32,0.21,0.78,0.62,1.39l2.69,4.02l3.11-3.94
				c0.36-0.46,0.58-0.78,0.67-0.96c0.08-0.17,0.12-0.35,0.12-0.53s-0.05-0.34-0.15-0.48c-0.13-0.18-0.29-0.31-0.49-0.38
				c-0.2-0.07-0.61-0.11-1.23-0.12v-0.48h6.21v0.48c-0.49,0.03-0.89,0.1-1.2,0.23c-0.46,0.2-0.89,0.46-1.28,0.8
				c-0.39,0.34-0.93,0.96-1.64,1.86L133.66,141.15z"/>
			<path fill="#1A2139" d="M148.04,134.3v6.92h3.85c1,0,1.67-0.15,2-0.45c0.45-0.4,0.7-1.09,0.75-2.09h0.48v6.1h-0.48
				c-0.12-0.85-0.24-1.4-0.36-1.64c-0.15-0.3-0.41-0.54-0.76-0.71c-0.35-0.17-0.9-0.26-1.63-0.26h-3.85v5.77
				c0,0.77,0.03,1.25,0.1,1.41c0.07,0.17,0.19,0.3,0.36,0.4c0.17,0.1,0.5,0.15,0.98,0.15h2.97c0.99,0,1.71-0.07,2.16-0.21
				s0.88-0.41,1.29-0.81c0.53-0.53,1.08-1.34,1.64-2.41h0.52l-1.51,4.39h-13.49v-0.48h0.62c0.41,0,0.8-0.1,1.18-0.3
				c0.28-0.14,0.46-0.34,0.56-0.62s0.15-0.84,0.15-1.69v-11.38c0-1.11-0.11-1.79-0.34-2.05c-0.31-0.34-0.83-0.52-1.55-0.52h-0.62
				v-0.48h13.49l0.19,3.84h-0.5c-0.18-0.92-0.38-1.55-0.6-1.9c-0.22-0.34-0.54-0.61-0.97-0.79c-0.34-0.13-0.95-0.19-1.82-0.19
				H148.04z"/>
		</g>
		<g>
			<g>
				<g>
					<path fill="#1A2139" d="M54,172.05l-0.32,1.04h-4.04l0.32-1.04H54z"/>
				</g>
				<g>
					<path fill="#1A2139" d="M122.81,172.05l-0.32,1.04h-4.04l0.32-1.04H122.81z"/>
				</g>
			</g>
			<g>
				<path fill="#1A2139" d="M63.51,176.76h-7.84l0.11-0.29c0.42-0.01,0.69-0.04,0.84-0.1c0.22-0.09,0.38-0.22,0.48-0.37
					c0.16-0.24,0.33-0.67,0.52-1.3l1.86-6.44c0.16-0.53,0.23-0.92,0.23-1.17c0-0.2-0.07-0.35-0.21-0.46
					c-0.14-0.11-0.41-0.16-0.81-0.16c-0.09,0-0.16,0-0.21-0.01l0.09-0.29h4.31l-0.06,0.29c-0.48,0-0.83,0.05-1.03,0.14
					c-0.2,0.09-0.37,0.25-0.51,0.46c-0.09,0.14-0.25,0.58-0.46,1.31l-1.83,6.33c-0.14,0.48-0.21,0.81-0.21,1
					c0,0.12,0.07,0.24,0.21,0.36c0.09,0.08,0.29,0.12,0.6,0.12h1.02c0.74,0,1.33-0.09,1.77-0.28c0.32-0.14,0.62-0.35,0.89-0.63
					c0.15-0.16,0.4-0.54,0.77-1.16l0.2-0.35h0.29L63.51,176.76z"/>
				<path fill="#1A2139" d="M70.29,176.47l-0.09,0.29h-4.35l0.11-0.29c0.44-0.01,0.73-0.05,0.87-0.11c0.23-0.09,0.4-0.21,0.51-0.37
					c0.17-0.24,0.35-0.68,0.53-1.31l1.84-6.38c0.16-0.53,0.23-0.93,0.23-1.2c0-0.14-0.03-0.25-0.1-0.34
					c-0.07-0.09-0.17-0.17-0.31-0.21s-0.41-0.07-0.81-0.07l0.09-0.29h4.09l-0.09,0.29c-0.33,0-0.58,0.03-0.74,0.11
					c-0.23,0.1-0.41,0.25-0.53,0.44s-0.28,0.62-0.47,1.28l-1.83,6.38c-0.17,0.59-0.25,0.96-0.25,1.12c0,0.13,0.03,0.24,0.1,0.33
					c0.07,0.09,0.17,0.16,0.31,0.21C69.54,176.4,69.84,176.44,70.29,176.47z"/>
				<path fill="#1A2139" d="M73.06,177l0.87-3.92h0.27c-0.04,0.38-0.05,0.69-0.05,0.94c0,0.71,0.23,1.29,0.68,1.74
					s1.05,0.67,1.78,0.67c0.68,0,1.2-0.21,1.55-0.63s0.53-0.9,0.53-1.45c0-0.35-0.08-0.68-0.24-0.97c-0.24-0.43-0.9-1.19-1.96-2.28
					c-0.51-0.52-0.85-0.91-0.99-1.16c-0.24-0.42-0.36-0.86-0.36-1.33c0-0.74,0.28-1.37,0.83-1.9c0.55-0.53,1.26-0.79,2.12-0.79
					c0.29,0,0.57,0.03,0.83,0.09c0.16,0.03,0.46,0.14,0.88,0.31c0.3,0.12,0.47,0.18,0.5,0.19c0.07,0.02,0.15,0.02,0.24,0.02
					c0.15,0,0.28-0.04,0.39-0.12c0.11-0.08,0.24-0.24,0.38-0.5h0.3l-0.81,3.51h-0.27c0.02-0.31,0.03-0.56,0.03-0.76
					c0-0.63-0.21-1.14-0.62-1.54c-0.42-0.4-0.96-0.6-1.65-0.6c-0.54,0-0.98,0.16-1.32,0.48c-0.34,0.32-0.51,0.68-0.51,1.1
					c0,0.36,0.11,0.71,0.32,1.04s0.71,0.87,1.49,1.62c0.78,0.75,1.28,1.33,1.51,1.75c0.23,0.42,0.34,0.86,0.34,1.34
					c0,0.54-0.14,1.05-0.43,1.56c-0.28,0.5-0.69,0.89-1.22,1.17c-0.53,0.28-1.11,0.41-1.74,0.41c-0.31,0-0.6-0.03-0.87-0.09
					c-0.27-0.06-0.7-0.2-1.3-0.42c-0.2-0.08-0.37-0.12-0.51-0.12c-0.31,0-0.55,0.21-0.72,0.62H73.06z"/>
				<path fill="#1A2139" d="M84.58,166.47l0.11-0.29h3.78c0.63,0,1.2,0.1,1.7,0.3c0.5,0.2,0.87,0.47,1.12,0.83
					c0.25,0.35,0.37,0.73,0.37,1.12c0,0.61-0.22,1.16-0.66,1.65c-0.44,0.49-1.16,0.85-2.15,1.09c0.64,0.24,1.11,0.56,1.41,0.95
					c0.3,0.4,0.45,0.83,0.45,1.3c0,0.53-0.14,1.03-0.41,1.51c-0.27,0.48-0.62,0.85-1.04,1.12c-0.42,0.27-0.93,0.46-1.53,0.59
					c-0.43,0.09-1.09,0.13-2,0.13h-3.88l0.1-0.29c0.41-0.01,0.68-0.05,0.83-0.12c0.21-0.09,0.36-0.21,0.44-0.35
					c0.12-0.2,0.29-0.65,0.5-1.36l1.9-6.4c0.16-0.54,0.24-0.92,0.24-1.14c0-0.19-0.07-0.34-0.21-0.46
					c-0.14-0.11-0.41-0.17-0.82-0.17C84.74,166.48,84.66,166.47,84.58,166.47z M84.63,176.07c0.56,0.07,1,0.11,1.32,0.11
					c0.81,0,1.53-0.24,2.16-0.73c0.63-0.49,0.94-1.15,0.94-1.99c0-0.64-0.19-1.14-0.58-1.5c-0.39-0.36-1.01-0.54-1.88-0.54
					c-0.17,0-0.37,0.01-0.61,0.02L84.63,176.07z M86.16,170.86c0.34,0.01,0.58,0.02,0.73,0.02c1.08,0,1.89-0.24,2.41-0.71
					s0.79-1.06,0.79-1.77c0-0.54-0.16-0.95-0.48-1.25c-0.32-0.3-0.84-0.45-1.54-0.45c-0.19,0-0.43,0.03-0.72,0.09L86.16,170.86z"/>
				<path fill="#1A2139" d="M101.13,165.94c0.7,0,1.32,0.15,1.86,0.46c0.54,0.3,0.96,0.75,1.27,1.35c0.31,0.6,0.46,1.21,0.46,1.85
					c0,1.13-0.33,2.32-0.99,3.57c-0.66,1.25-1.52,2.2-2.58,2.85S99,177,97.87,177c-0.82,0-1.5-0.18-2.05-0.54
					c-0.55-0.36-0.95-0.84-1.22-1.43c-0.26-0.59-0.39-1.17-0.39-1.72c0-0.99,0.24-1.96,0.71-2.93c0.48-0.96,1.04-1.77,1.7-2.42
					c0.66-0.65,1.37-1.15,2.11-1.49C99.49,166.11,100.28,165.94,101.13,165.94z M100.86,166.44c-0.52,0-1.03,0.13-1.53,0.39
					c-0.5,0.26-0.99,0.68-1.48,1.26c-0.49,0.59-0.93,1.35-1.32,2.3c-0.48,1.16-0.72,2.26-0.72,3.3c0,0.74,0.19,1.39,0.57,1.96
					c0.38,0.57,0.96,0.85,1.75,0.85c0.47,0,0.94-0.12,1.39-0.35s0.93-0.63,1.42-1.2c0.62-0.71,1.14-1.62,1.56-2.73
					c0.42-1.11,0.63-2.14,0.63-3.09c0-0.71-0.19-1.33-0.57-1.88C102.2,166.71,101.62,166.44,100.86,166.44z"/>
				<path fill="#1A2139" d="M114.3,165.94l-0.8,8.8c-0.04,0.41-0.06,0.68-0.06,0.81c0,0.21,0.04,0.37,0.12,0.48
					c0.1,0.15,0.23,0.26,0.4,0.34c0.17,0.07,0.45,0.11,0.85,0.11l-0.09,0.29h-4.17l0.09-0.29h0.18c0.34,0,0.61-0.07,0.83-0.22
					c0.15-0.1,0.27-0.26,0.35-0.49c0.06-0.16,0.11-0.54,0.16-1.14l0.12-1.34h-3.03l-1.08,1.46c-0.24,0.33-0.4,0.56-0.46,0.71
					c-0.06,0.14-0.09,0.28-0.09,0.4c0,0.17,0.07,0.31,0.2,0.43c0.14,0.12,0.36,0.18,0.67,0.2l-0.09,0.29h-3.13l0.09-0.29
					c0.38-0.02,0.72-0.14,1.02-0.39c0.29-0.24,0.73-0.76,1.31-1.55l6.32-8.6H114.3z M112.76,168.54l-3.07,4.17h2.66L112.76,168.54z"
					/>
			</g>
		</g>
	</g>
</g>
</svg>
