<svg id="Capa_1" data-name="Capa 1" xmlns="http://www.w3.org/2000/svg" viewBox="0 0 120 30"><defs><style>.cls-1{fill:#1e222f;}</style></defs><title>logo-conectate-02</title><path class="cls-1" d="M14,12.46L14,12.51l-0.07,0a0.47,0.47,0,0,1-.23-0.13,3.16,3.16,0,0,0-.44-0.29,3.47,3.47,0,0,0-1.75-.42A3.66,3.66,0,0,0,10,12a3.07,3.07,0,0,0-1.13.87,4,4,0,0,0-.71,1.37,6.25,6.25,0,0,0-.24,1.81,6.3,6.3,0,0,0,.25,1.84,3.92,3.92,0,0,0,.7,1.36,3,3,0,0,0,1.09.84,3.41,3.41,0,0,0,1.42.29,3.6,3.6,0,0,0,2-.53,3.1,3.1,0,0,0,.49-0.36,0.48,0.48,0,0,1,.24-0.16,0.15,0.15,0,0,1,.12.06l0.11,0.14a2.23,2.23,0,0,1-.46.46,3.41,3.41,0,0,1-.68.4,4.6,4.6,0,0,1-.86.28,4.53,4.53,0,0,1-1,.11,4,4,0,0,1-1.61-.32,3.34,3.34,0,0,1-1.23-.92A4.32,4.32,0,0,1,7.66,18a6.52,6.52,0,0,1-.28-2,6.46,6.46,0,0,1,.28-1.94,4.29,4.29,0,0,1,.8-1.5,3.61,3.61,0,0,1,1.28-1,4.11,4.11,0,0,1,1.73-.35,4,4,0,0,1,1.53.28,3.83,3.83,0,0,1,1.16.72Z"/><path class="cls-1" d="M30.86,20.66V11.45H31.1a0.17,0.17,0,0,1,.19.19l0.06,1.6a5.06,5.06,0,0,1,1.53-1.41,3.77,3.77,0,0,1,2-.52,3.48,3.48,0,0,1,1.34.24,2.47,2.47,0,0,1,1,.68,3,3,0,0,1,.57,1.09,5.12,5.12,0,0,1,.19,1.46v5.89h-0.5V14.76a4.8,4.8,0,0,0-.16-1.29,2.56,2.56,0,0,0-.49-1,2.15,2.15,0,0,0-.83-0.61,3,3,0,0,0-1.17-.21,3.5,3.5,0,0,0-1.87.53,5.14,5.14,0,0,0-1.51,1.46v7H30.86Z"/><path class="cls-1" d="M44.19,11.3a3.7,3.7,0,0,1,1.4.26,3.21,3.21,0,0,1,1.13.77,3.6,3.6,0,0,1,.76,1.26,4.92,4.92,0,0,1,.28,1.71,0.16,0.16,0,0,1-.17.2h-7a1.82,1.82,0,0,0,0,.19v0.19a6.55,6.55,0,0,0,.26,1.94,4,4,0,0,0,.74,1.41,3.1,3.1,0,0,0,1.15.86,3.74,3.74,0,0,0,1.51.29,4.47,4.47,0,0,0,1.28-.16,5,5,0,0,0,.91-0.36A3.74,3.74,0,0,0,47,19.49a0.69,0.69,0,0,1,.26-0.16,0.15,0.15,0,0,1,.12.06l0.12,0.14A2.3,2.3,0,0,1,47,20a4.17,4.17,0,0,1-.77.4,5.74,5.74,0,0,1-.94.28,5,5,0,0,1-1,.11,4.23,4.23,0,0,1-1.7-.33,3.56,3.56,0,0,1-1.3-1,4.34,4.34,0,0,1-.83-1.54,6.85,6.85,0,0,1-.29-2.08A5.86,5.86,0,0,1,40.39,14a4.2,4.2,0,0,1,.8-1.44,3.58,3.58,0,0,1,1.28-.94A4.19,4.19,0,0,1,44.19,11.3Zm0,0.37a3.71,3.71,0,0,0-1.41.25,3.12,3.12,0,0,0-1.07.71,3.54,3.54,0,0,0-.72,1.1,5,5,0,0,0-.36,1.43h6.67a4.28,4.28,0,0,0-.24-1.48,3.22,3.22,0,0,0-.65-1.1,2.75,2.75,0,0,0-1-.68A3.23,3.23,0,0,0,44.2,11.67ZM46,7.38L44,9.72a0.27,0.27,0,0,1-.22.11H43.5L45,7.62a0.63,0.63,0,0,1,.18-0.19,0.54,0.54,0,0,1,.27-0.05H46Z"/><path class="cls-1" d="M56.06,12.46L56,12.51l-0.07,0a0.47,0.47,0,0,1-.23-0.13,3.16,3.16,0,0,0-.44-0.29,3.47,3.47,0,0,0-1.75-.42A3.66,3.66,0,0,0,52,12a3.07,3.07,0,0,0-1.13.87,4,4,0,0,0-.71,1.37,6.25,6.25,0,0,0-.24,1.81,6.3,6.3,0,0,0,.25,1.84,3.92,3.92,0,0,0,.7,1.36A3,3,0,0,0,52,20.1a3.41,3.41,0,0,0,1.42.29,3.6,3.6,0,0,0,2-.53,3.1,3.1,0,0,0,.49-0.36,0.48,0.48,0,0,1,.24-0.16,0.15,0.15,0,0,1,.12.06l0.11,0.14a2.23,2.23,0,0,1-.46.46,3.41,3.41,0,0,1-.68.4,4.6,4.6,0,0,1-.86.28,4.53,4.53,0,0,1-1,.11,4,4,0,0,1-1.61-.32,3.34,3.34,0,0,1-1.23-.92A4.32,4.32,0,0,1,49.7,18a6.52,6.52,0,0,1-.28-2,6.46,6.46,0,0,1,.28-1.94,4.29,4.29,0,0,1,.8-1.5,3.61,3.61,0,0,1,1.28-1,4.11,4.11,0,0,1,1.73-.35,4,4,0,0,1,1.53.28,3.83,3.83,0,0,1,1.16.72Z"/><path class="cls-1" d="M60.71,20.81a1.85,1.85,0,0,1-1.34-.47,2,2,0,0,1-.49-1.52V12.18H57.45A0.14,0.14,0,0,1,57.27,12V11.87l1.61-.07L59,8.26a0.25,0.25,0,0,1,0-.11,0.12,0.12,0,0,1,.1-0.05h0.21V11.8h3v0.37h-3V18.8a2.13,2.13,0,0,0,.11.73,1.41,1.41,0,0,0,.3.5,1.09,1.09,0,0,0,.44.29,1.83,1.83,0,0,0,1.2,0A2.66,2.66,0,0,0,61.9,20a2.79,2.79,0,0,0,.32-0.24,0.34,0.34,0,0,1,.18-0.11,0.15,0.15,0,0,1,.1.06l0.12,0.18a2.24,2.24,0,0,1-.37.36,2.59,2.59,0,0,1-.46.28,2.86,2.86,0,0,1-.52.18A2.31,2.31,0,0,1,60.71,20.81Z"/><path class="cls-1" d="M69.78,20.66a0.2,0.2,0,0,1-.21-0.2l-0.09-1.35a8.76,8.76,0,0,1-.77.71,4.81,4.81,0,0,1-.81.53,4.16,4.16,0,0,1-.92.34,4.63,4.63,0,0,1-1.09.12A3,3,0,0,1,65,20.67a2.26,2.26,0,0,1-.78-0.41,2,2,0,0,1-.56-0.72,2.48,2.48,0,0,1-.21-1.07,1.87,1.87,0,0,1,.35-1.1,2.79,2.79,0,0,1,1.09-.85,7.38,7.38,0,0,1,1.87-.57,17.29,17.29,0,0,1,2.69-.25V14.6a3.42,3.42,0,0,0-.6-2.15,2.11,2.11,0,0,0-1.77-.77,3.25,3.25,0,0,0-1.2.2,3.78,3.78,0,0,0-.84.45,4.77,4.77,0,0,0-.54.45,0.56,0.56,0,0,1-.3.2,0.21,0.21,0,0,1-.17-0.1L64,12.76a5.32,5.32,0,0,1,1.45-1.08,3.85,3.85,0,0,1,1.73-.37,3.15,3.15,0,0,1,1.25.23,2.28,2.28,0,0,1,.88.66,2.8,2.8,0,0,1,.52,1,5.23,5.23,0,0,1,.17,1.38v6.05H69.78ZM66,20.44a4,4,0,0,0,2-.5,4.69,4.69,0,0,0,.79-0.55,9.56,9.56,0,0,0,.7-0.67V16.05a11.71,11.71,0,0,0-4.17.7,1.89,1.89,0,0,0-1.35,1.7,2.1,2.1,0,0,0,.17.89,1.8,1.8,0,0,0,1.11,1A2.45,2.45,0,0,0,66,20.44Z"/><path class="cls-1" d="M75,20.81a1.85,1.85,0,0,1-1.34-.47,2,2,0,0,1-.49-1.52V12.18H71.76A0.14,0.14,0,0,1,71.58,12V11.87l1.62-.07,0.14-3.55a0.26,0.26,0,0,1,0-.11,0.12,0.12,0,0,1,.1-0.05h0.21V11.8h3v0.37h-3V18.8a2.11,2.11,0,0,0,.11.73,1.41,1.41,0,0,0,.3.5,1.09,1.09,0,0,0,.44.29,1.83,1.83,0,0,0,1.2,0A2.65,2.65,0,0,0,76.21,20a2.81,2.81,0,0,0,.32-0.24,0.34,0.34,0,0,1,.18-0.11,0.15,0.15,0,0,1,.1.06l0.12,0.18a2.16,2.16,0,0,1-.37.36,2.54,2.54,0,0,1-.46.28,2.89,2.89,0,0,1-.52.18A2.32,2.32,0,0,1,75,20.81Z"/><path class="cls-1" d="M82,11.3a3.7,3.7,0,0,1,1.4.26,3.21,3.21,0,0,1,1.13.77,3.59,3.59,0,0,1,.76,1.26,4.92,4.92,0,0,1,.28,1.71,0.16,0.16,0,0,1-.17.2h-7c0,0.06,0,.12,0,0.19v0.19a6.57,6.57,0,0,0,.26,1.94,4.06,4.06,0,0,0,.74,1.41,3.09,3.09,0,0,0,1.15.86,3.74,3.74,0,0,0,1.51.29,4.48,4.48,0,0,0,1.28-.16,5,5,0,0,0,.91-0.36,3.77,3.77,0,0,0,.57-0.36,0.69,0.69,0,0,1,.26-0.16,0.15,0.15,0,0,1,.12.06l0.12,0.14a2.32,2.32,0,0,1-.52.46,4.19,4.19,0,0,1-.77.4,5.77,5.77,0,0,1-.94.28,5,5,0,0,1-1,.11,4.23,4.23,0,0,1-1.7-.33,3.57,3.57,0,0,1-1.3-1,4.34,4.34,0,0,1-.83-1.54A6.83,6.83,0,0,1,78,15.87,5.86,5.86,0,0,1,78.25,14a4.2,4.2,0,0,1,.8-1.44,3.59,3.59,0,0,1,1.28-.94A4.19,4.19,0,0,1,82,11.3Zm0,0.37a3.71,3.71,0,0,0-1.41.25,3.12,3.12,0,0,0-1.07.71,3.54,3.54,0,0,0-.72,1.1,5,5,0,0,0-.36,1.43h6.67a4.29,4.29,0,0,0-.24-1.48,3.23,3.23,0,0,0-.65-1.1,2.75,2.75,0,0,0-1-.68A3.23,3.23,0,0,0,82.05,11.67Z"/><path class="cls-1" d="M17.58,11.44l-0.28-.29a6.79,6.79,0,0,1,8.6-.69l-0.23.33A6.39,6.39,0,0,0,17.58,11.44Z"/><path class="cls-1" d="M27.7,19.75l-0.33-.22a6.4,6.4,0,0,0,.47-6.15l0.36-.17A6.79,6.79,0,0,1,27.7,19.75Z"/><path class="cls-1" d="M16.18,19.49a6.79,6.79,0,0,1,.21-7.25l0.33,0.22a6.4,6.4,0,0,0-.2,6.82Z"/><path class="cls-1" d="M22,22.82a6.8,6.8,0,0,1-4.31-1.54L18,21a6.39,6.39,0,0,0,8.33-.19l0.27,0.3A6.77,6.77,0,0,1,22,22.82Z"/><path class="cls-1" d="M27.08,13.77a2,2,0,1,1,2-2A2,2,0,0,1,27.08,13.77Zm0-3.51a1.55,1.55,0,1,0,1.55,1.55A1.56,1.56,0,0,0,27.08,10.26Z"/><path class="cls-1" d="M17,12.69a0.88,0.88,0,1,1,.88-0.88A0.88,0.88,0,0,1,17,12.69Zm0-1.35a0.47,0.47,0,1,0,.48.47A0.48,0.48,0,0,0,17,11.34Z"/><path class="cls-1" d="M17,21.67a1.35,1.35,0,1,1,1.35-1.35A1.35,1.35,0,0,1,17,21.67Zm0-2.3a1,1,0,1,0,1,1A1,1,0,0,0,17,19.37Z"/><path class="cls-1" d="M27,21.36a1,1,0,1,1,1-1A1,1,0,0,1,27,21.36Zm0-1.69a0.64,0.64,0,1,0,.64.64A0.65,0.65,0,0,0,27,19.67Z"/><rect class="cls-1" x="22.24" y="14.07" width="4" height="0.4" transform="translate(-3.54 18.65) rotate(-39.45)"/><polygon class="cls-1" points="17.96 19.67 17.71 19.36 22.57 15.38 22.82 15.69 17.96 19.67"/><rect class="cls-1" x="17.69" y="11.62" width="7.63" height="0.4"/><rect class="cls-1" x="26.88" y="13.57" width="0.4" height="5.9"/><path class="cls-1" d="M87.66,20.1a0.71,0.71,0,0,1,.2-0.51,0.66,0.66,0,0,1,.5-0.21,0.72,0.72,0,0,1,.72.72,0.66,0.66,0,0,1-.21.5,0.71,0.71,0,0,1-.51.2A0.69,0.69,0,0,1,87.66,20.1Z"/><path class="cls-1" d="M91.81,20.66V11.45H92a0.17,0.17,0,0,1,.19.19l0.06,1.55a4.71,4.71,0,0,1,1.28-1.37,2.76,2.76,0,0,1,1.62-.51,2.22,2.22,0,0,1,1.67.64,3.23,3.23,0,0,1,.8,1.78,3.29,3.29,0,0,1,.43-1.07,3,3,0,0,1,.69-0.76,2.69,2.69,0,0,1,.86-0.45,3.23,3.23,0,0,1,1-.15,3,3,0,0,1,1.2.23,2.43,2.43,0,0,1,.91.67,3,3,0,0,1,.57,1.08,5,5,0,0,1,.2,1.48v5.89H103V14.76a3.55,3.55,0,0,0-.64-2.28,2.22,2.22,0,0,0-1.83-.79,2.69,2.69,0,0,0-1,.19,2.37,2.37,0,0,0-.85.58,2.91,2.91,0,0,0-.59,1,3.67,3.67,0,0,0-.22,1.34v5.89h-0.5V14.76a3.82,3.82,0,0,0-.58-2.27,2,2,0,0,0-1.7-.8,2.52,2.52,0,0,0-1.54.52,4.73,4.73,0,0,0-1.23,1.44v7h-0.5Z"/><path class="cls-1" d="M108.55,16l-3.27-4.51h0.47a0.17,0.17,0,0,1,.14.05L106,11.6l2.94,4.14a0.63,0.63,0,0,1,.11-0.22l2.81-3.9,0.09-.11a0.17,0.17,0,0,1,.13-0.05h0.45l-3.27,4.47,3.4,4.73h-0.47A0.17,0.17,0,0,1,112,20.6l-0.08-.11-3.05-4.3a0.64,0.64,0,0,1-.1.21l-3,4.1-0.1.11a0.17,0.17,0,0,1-.13.06h-0.44Z"/></svg>